<svg width="12" height="12" viewBox="0 0 12 12" fill="none" xmlns="http://www.w3.org/2000/svg">
<path fill-rule="evenodd" clip-rule="evenodd" d="M4.56768 6.3145L2.79057 5.72239C0.930453 5.10261 0 4.79272 0 4.22275C0 3.65357 0.930453 3.34289 2.79057 2.72311L9.52035 0.479582C10.8295 0.043208 11.484 -0.174979 11.8295 0.170484C12.1749 0.515946 11.9568 1.17051 11.5212 2.47884L9.27687 9.20942C8.65709 11.0695 8.3472 12 7.77723 12C7.20805 12 6.89737 11.0695 6.2776 9.20942L5.6847 7.4331L9.12666 3.99112C9.27067 3.84203 9.35035 3.64234 9.34855 3.43506C9.34674 3.22779 9.2636 3.02951 9.11703 2.88294C8.97046 2.73637 8.77219 2.65323 8.56491 2.65143C8.35764 2.64963 8.15795 2.72931 8.00886 2.87331L4.56768 6.3145Z" fill="#242941"/>
</svg>
